<svg width="40" height="41" viewBox="0 0 40 41" fill="none" xmlns="http://www.w3.org/2000/svg">
<path fill-rule="evenodd" clip-rule="evenodd" d="M6.66675 6.79986C6.66675 10.4817 9.65152 13.4665 13.3334 13.4665H20.0001V0.133179H13.3334C9.65152 0.133179 6.66675 3.11795 6.66675 6.79986Z" fill="#F24E1E"/>
<path fill-rule="evenodd" clip-rule="evenodd" d="M20.0002 0.133179V13.4665H26.6669C30.3488 13.4665 33.3336 10.4817 33.3336 6.79986C33.3336 3.11795 30.3488 0.133179 26.6669 0.133179H20.0002Z" fill="#FF7262"/>
<path fill-rule="evenodd" clip-rule="evenodd" d="M6.66675 20.133C6.66675 23.8149 9.65152 26.7997 13.3334 26.7997H20.0001V13.4664H13.3334C9.65152 13.4664 6.66675 16.4512 6.66675 20.133Z" fill="#A259FF"/>
<path fill-rule="evenodd" clip-rule="evenodd" d="M20.0002 20.133C20.0002 16.4512 22.9851 13.4664 26.6669 13.4664C30.3488 13.4664 33.3336 16.4512 33.3336 20.133C33.3336 23.8149 30.3488 26.7997 26.6669 26.7997C22.9851 26.7997 20.0002 23.8149 20.0002 20.133Z" fill="#1ABCFE"/>
<path fill-rule="evenodd" clip-rule="evenodd" d="M6.66675 33.4665C6.66675 29.7847 9.65152 26.7998 13.3334 26.7998H20.0001V33.4665C20.0001 37.1484 17.0153 40.1332 13.3334 40.1332C9.65152 40.1332 6.66675 37.1484 6.66675 33.4665Z" fill="#0ACF83"/>
</svg>
