<svg width="40" height="41" viewBox="0 0 40 41" fill="none" xmlns="http://www.w3.org/2000/svg">
<path d="M8.66529 0.133209H31.3347C36.1172 0.133209 40 4.01601 40 8.79849V31.4679C40 36.2504 36.1172 40.1332 31.3347 40.1332H8.66529C3.88281 40.1332 0 36.2504 0 31.4679V8.79849C0 4.01601 3.88281 0.133209 8.66529 0.133209Z" fill="#FFD02F"/>
<path d="M27.7951 5.12878H23.4033L27.0611 11.5567L19.0114 5.12878H14.6196L18.6445 12.9891L10.2278 5.12878H5.83594L10.2278 15.1317L5.83594 35.1377H10.2278L18.6445 13.6994L14.6196 35.1377H19.0114L27.0611 12.2788L23.4033 35.1377H27.7951L35.8448 10.1243L27.7951 5.12878Z" fill="#050038"/>
</svg>
