<svg width="39" height="41" viewBox="0 0 39 41" fill="none" xmlns="http://www.w3.org/2000/svg">
<path d="M6.61673 7.14602C7.86087 8.15675 8.3276 8.07962 10.6638 7.92377L32.6886 6.60128C33.1556 6.60128 32.7672 6.13527 32.6116 6.05782L28.9535 3.4135C28.2528 2.86938 27.3189 2.24621 25.5293 2.40209L4.20272 3.95759C3.42497 4.03471 3.26959 4.42357 3.57937 4.7353L6.61673 7.14602ZM7.93906 12.2788V35.4528C7.93906 36.6981 8.56143 37.1642 9.96226 37.0872L34.1675 35.6866C35.5689 35.6095 35.7251 34.7527 35.7251 33.7411V10.7227C35.7251 9.7126 35.3366 9.16786 34.4786 9.2456L9.18386 10.7227C8.25041 10.8011 7.93906 11.2681 7.93906 12.2788ZM31.8344 13.522C31.9897 14.2226 31.8344 14.9225 31.1325 15.0013L29.9663 15.2336V32.342C28.9535 32.8863 28.0199 33.1974 27.2418 33.1974C25.9961 33.1974 25.6841 32.8084 24.7509 31.6424L17.1223 19.6664V31.2537L19.5363 31.7983C19.5363 31.7983 19.5363 33.1974 17.5887 33.1974L12.2196 33.5088C12.0636 33.1974 12.2196 32.4205 12.7642 32.2647L14.1653 31.8765V16.5561L12.2199 16.4003C12.0639 15.6996 12.4525 14.6895 13.5429 14.6111L19.3027 14.2229L27.2418 26.3548V15.6225L25.2177 15.3902C25.0623 14.5337 25.6841 13.9118 26.4625 13.8346L31.8344 13.522ZM2.41208 1.85798L24.5952 0.2244C27.3195 -0.00924429 28.0202 0.147262 29.7325 1.39101L36.8134 6.36795C37.982 7.2238 38.3713 7.45681 38.3713 8.38978V35.6866C38.3713 37.3971 37.7482 38.4089 35.5692 38.5636L9.80816 40.1195C8.17257 40.1974 7.39415 39.9642 6.53762 38.8747L1.32296 32.1091C0.388562 30.8638 0 29.9319 0 28.8419V4.57883C0 3.17984 0.623347 2.01291 2.41208 1.85798Z" fill="black"/>
</svg>
