<svg width="40" height="41" viewBox="0 0 40 41" fill="none" xmlns="http://www.w3.org/2000/svg">
<path d="M0 34.9756C0 37.8243 2.30915 40.1332 5.15762 40.1332H34.8424C37.6912 40.1332 40 37.824 40 34.9756V5.2908C40 2.44201 37.6909 0.133179 34.8424 0.133179H5.15762C2.30883 0.133179 0 2.44232 0 5.2908V34.9756Z" fill="#563D7C"/>
<path d="M16.5871 17.8266V12.162H21.5733C22.0482 12.162 22.5061 12.2016 22.9471 12.2807C23.3881 12.3599 23.7781 12.5012 24.1173 12.7047C24.4565 12.9083 24.7279 13.1909 24.9314 13.5527C25.1349 13.9145 25.2367 14.3781 25.2367 14.9434C25.2367 15.961 24.9314 16.696 24.3209 17.1482C23.7103 17.6005 22.9301 17.8266 21.9804 17.8266H16.5871ZM11.2617 8.0238V32.2426H22.998C24.0834 32.2426 25.1406 32.1069 26.1695 31.8355C27.1984 31.5642 28.1142 31.1458 28.917 30.5805C29.7198 30.0152 30.3586 29.2859 30.8335 28.3927C31.3083 27.4994 31.5458 26.4423 31.5458 25.2211C31.5458 23.7061 31.1783 22.4115 30.4434 21.3373C29.7084 20.2632 28.5948 19.5113 27.1023 19.0817C28.1877 18.5616 29.0074 17.8945 29.5615 17.0804C30.1155 16.2663 30.3925 15.2487 30.3925 14.0276C30.3925 12.8969 30.2059 11.9472 29.8328 11.1783C29.4597 10.4095 28.9339 9.79329 28.2555 9.32972C27.5772 8.86614 26.7631 8.5326 25.8133 8.32908C24.8636 8.12556 23.8121 8.0238 22.6588 8.0238H11.2617ZM16.5871 28.1043V21.4561H22.3874C23.5407 21.4561 24.4678 21.7218 25.1688 22.2532C25.8699 22.7846 26.2204 23.6721 26.2204 24.9159C26.2204 25.549 26.1129 26.0691 25.8981 26.4762C25.6833 26.8832 25.395 27.2055 25.0332 27.4429C24.6714 27.6803 24.253 27.8499 23.7781 27.9517C23.3033 28.0535 22.8058 28.1043 22.2857 28.1043H16.5871Z" fill="white"/>
</svg>
