<svg width="40" height="41" viewBox="0 0 40 41" fill="none" xmlns="http://www.w3.org/2000/svg">
<path d="M0 6.13318C0 2.81947 2.68629 0.133179 6 0.133179H34C37.3137 0.133179 40 2.81947 40 6.13318V34.1332C40 37.4469 37.3137 40.1332 34 40.1332H6C2.68629 40.1332 0 37.4469 0 34.1332V6.13318Z" fill="#F7DF1E"/>
<path d="M10.5175 33.5601L13.5786 31.7076C14.1691 32.7546 14.7063 33.6405 15.9949 33.6405C17.2301 33.6405 18.0088 33.1574 18.0088 31.278V18.497H21.7678V31.3311C21.7678 35.2245 19.4856 36.9966 16.1561 36.9966C13.149 36.9966 11.4035 35.4392 10.5175 33.5598" fill="#333333"/>
<path d="M23.8096 33.1573L26.8703 31.3852C27.676 32.701 28.7232 33.6675 30.5757 33.6675C32.1333 33.6675 33.1265 32.8888 33.1265 31.8148C33.1265 30.5259 32.1062 30.0694 30.3877 29.3179L29.4482 28.9148C26.7362 27.7605 24.9371 26.3106 24.9371 23.2496C24.9371 20.4303 27.0851 18.2821 30.4416 18.2821C32.8313 18.2821 34.5497 19.1146 35.7847 21.2895L32.858 23.1689C32.2135 22.0145 31.5156 21.5581 30.4416 21.5581C29.3407 21.5581 28.6426 22.2562 28.6426 23.1689C28.6426 24.2967 29.3407 24.7532 30.9516 25.4514L31.8913 25.8541C35.0865 27.2236 36.8856 28.6197 36.8856 31.7611C36.8856 35.1444 34.2274 36.9969 30.6564 36.9969C27.1658 36.9969 24.9103 35.3323 23.8096 33.1573Z" fill="#333333"/>
</svg>
