<svg xmlns="http://www.w3.org/2000/svg" viewBox="0 0 299.62 45.6"><defs><style>.a{fill:#d8804f;}.b{fill:#333;}</style></defs><polygon class="a" points="37.27 22.84 50.18 38.56 63.09 22.84 63.09 45.59 75.11 45.59 75.11 0 66.29 0 50.18 19.62 34.07 0 25.13 0 25.13 6.39 18.66 6.39 18.66 12.74 25.23 12.74 25.23 19.31 31.8 19.31 31.8 26.1 25.23 26.1 25.23 32.45 31.8 32.45 31.8 39.03 37.27 39.03 37.27 22.84"/><path class="b" d="M112.06,32.71l0-13.14-6.51,10.88h-1.64L97.35,19.74v13H93.84V12.88h3L104.75,26l7.74-13.14h3l0,19.82Z"/><path class="b" d="M137.47,29.63v3.08H122.6V12.88h14.48V16h-10.8v5.16h9.58v3h-9.58v5.47Z"/><path class="b" d="M147.3,16h-6.57V12.88h16.83V16H151V32.71H147.3Z"/><path class="b" d="M164,28.12l-2,4.59h-3.8l8.92-19.83h3.63l8.95,19.83h-3.85l-2-4.59-1.22-2.89-3.74-8.67-3.71,8.67Z"/><path class="b" d="M195.19,32.35a9.53,9.53,0,0,1-3.39-1.73l1.28-2.87a10,10,0,0,0,3,1.58,11,11,0,0,0,3.55.61,6.13,6.13,0,0,0,3.3-.71A2.14,2.14,0,0,0,204,27.36a1.78,1.78,0,0,0-.6-1.4,4.25,4.25,0,0,0-1.55-.87c-.62-.21-1.47-.44-2.55-.71a31.42,31.42,0,0,1-3.67-1.07,6.07,6.07,0,0,1-2.4-1.69,4.47,4.47,0,0,1-1-3.1,5.3,5.3,0,0,1,.89-3,6,6,0,0,1,2.69-2.14,10.9,10.9,0,0,1,4.41-.79,14.38,14.38,0,0,1,3.57.45,9.71,9.71,0,0,1,3,1.31l-1.16,2.86a11,11,0,0,0-2.72-1.16,9.89,9.89,0,0,0-2.75-.4,5.66,5.66,0,0,0-3.24.74,2.3,2.3,0,0,0-1.07,2,1.8,1.8,0,0,0,.61,1.39,4.61,4.61,0,0,0,1.55.85c.62.21,1.47.44,2.55.71a25.42,25.42,0,0,1,3.62,1.06A6.4,6.4,0,0,1,206.64,24a4.51,4.51,0,0,1,1,3.06,5.26,5.26,0,0,1-.89,3A6.16,6.16,0,0,1,204,32.2a11,11,0,0,1-4.42.8A15.47,15.47,0,0,1,195.19,32.35Z"/><path class="b" d="M230.62,12.88V32.71h-3.69v-8.5H216.67v8.5H213V12.88h3.68v8.19h10.26V12.88Z"/><path class="b" d="M241.43,31.68A9.77,9.77,0,0,1,237.6,28a10.53,10.53,0,0,1,0-10.45,9.74,9.74,0,0,1,3.83-3.65,12,12,0,0,1,10.93,0,9.79,9.79,0,0,1,3.83,3.64,10.59,10.59,0,0,1,0,10.48,9.79,9.79,0,0,1-3.83,3.64,12,12,0,0,1-10.93,0Zm9-2.8a6.5,6.5,0,0,0,2.5-2.49,7.53,7.53,0,0,0,0-7.17,6.39,6.39,0,0,0-2.5-2.5,7.57,7.57,0,0,0-7.13,0,6.37,6.37,0,0,0-2.5,2.49,7.52,7.52,0,0,0,0,7.16,6.39,6.39,0,0,0,2.49,2.51,7.59,7.59,0,0,0,7.14,0Z"/><path class="b" d="M275.84,13.73a6.53,6.53,0,0,1,2.93,2.44,6.81,6.81,0,0,1,1,3.77,6.82,6.82,0,0,1-1,3.75,6.48,6.48,0,0,1-2.93,2.45,10.9,10.9,0,0,1-4.49.85h-4.47v5.72h-3.69V12.88h8.16A11.07,11.07,0,0,1,275.84,13.73Zm-1,9.13a3.56,3.56,0,0,0,1.24-2.92A3.55,3.55,0,0,0,274.84,17a5.68,5.68,0,0,0-3.66-1h-4.3v7.88h4.3a5.72,5.72,0,0,0,3.66-1Z"/><path class="b" d="M287.17,32.35a9.48,9.48,0,0,1-3.38-1.73l1.27-2.87a10,10,0,0,0,3,1.58,11,11,0,0,0,3.56.61,6.18,6.18,0,0,0,3.3-.71A2.16,2.16,0,0,0,296,27.36a1.82,1.82,0,0,0-.61-1.4,4.25,4.25,0,0,0-1.55-.87c-.62-.21-1.47-.44-2.54-.71a30.86,30.86,0,0,1-3.67-1.07,6.11,6.11,0,0,1-2.41-1.69,4.52,4.52,0,0,1-1-3.1,5.3,5.3,0,0,1,.89-3,6.08,6.08,0,0,1,2.7-2.14,10.82,10.82,0,0,1,4.4-.79,14.26,14.26,0,0,1,3.57.45,9.61,9.61,0,0,1,3,1.31l-1.16,2.86a10.88,10.88,0,0,0-2.72-1.16,9.84,9.84,0,0,0-2.75-.4,5.66,5.66,0,0,0-3.24.74,2.27,2.27,0,0,0-1.06,2,1.77,1.77,0,0,0,.61,1.39,4.47,4.47,0,0,0,1.54.85c.62.21,1.47.44,2.55.71a25.94,25.94,0,0,1,3.63,1.06A6.29,6.29,0,0,1,298.62,24a4.46,4.46,0,0,1,1,3.06,5.19,5.19,0,0,1-.89,3A6.13,6.13,0,0,1,296,32.2a11,11,0,0,1-4.42.8A15.54,15.54,0,0,1,287.17,32.35Z"/><rect class="b" x="18.66" y="19.53" width="6.35" height="6.35"/><rect class="b" x="25.23" y="39.25" width="6.35" height="6.35"/><rect class="b" x="12.09" width="6.35" height="6.17"/><rect class="b" y="19.19" width="3.87" height="3.87"/><rect class="b" x="4.75" y="33.28" width="3.87" height="3.87"/><rect class="b" x="7.9" y="11.83" width="5.14" height="5.14"/><rect class="b" x="14.34" y="34.28" width="5.14" height="5.14"/><rect class="b" x="7.78" y="24.11" width="5.14" height="5.14"/></svg>